<?xml version="1.0" encoding="UTF-8"?>
<svg xmlns="http://www.w3.org/2000/svg" xmlns:xlink="http://www.w3.org/1999/xlink" width="271pt" height="271pt" viewBox="0 0 271 271" version="1.1">
<g id="surface1">
<path style=" stroke:none;fill-rule:nonzero;fill:rgb(17.254902%,71.764706%,60.392157%);fill-opacity:1;" d="M 164.90625 94.335938 L 146.597656 90.304688 L 166.488281 0 L 184.796875 4.03125 Z M 164.90625 94.335938 "/>
<path style=" stroke:none;fill-rule:nonzero;fill:rgb(11.372549%,82.352941%,64.705882%);fill-opacity:1;" d="M 110.289062 94.863281 L 125.265625 88.875 L 93.96875 10.617188 L 43.5 11.28125 L 43.710938 27.410156 L 83.105469 26.890625 Z M 110.289062 94.863281 "/>
<path style=" stroke:none;fill-rule:nonzero;fill:rgb(75.686275%,90.980392%,90.196078%);fill-opacity:1;" d="M 31.136719 72.296875 L 135.5 176.660156 L 239.863281 72.296875 C 243.679688 68.480469 240.976562 61.957031 235.582031 61.957031 L 35.417969 61.957031 C 30.023438 61.957031 27.320312 68.480469 31.136719 72.296875 Z M 31.136719 72.296875 "/>
<path style=" stroke:none;fill-rule:nonzero;fill:rgb(62.745098%,81.176471%,94.509804%);fill-opacity:1;" d="M 235.582031 61.957031 L 135.5 61.957031 L 135.5 176.660156 L 239.863281 72.296875 C 243.679688 68.480469 240.976562 61.957031 235.582031 61.957031 Z M 235.582031 61.957031 "/>
<path style=" stroke:none;fill-rule:nonzero;fill:rgb(75.686275%,90.980392%,90.196078%);fill-opacity:1;" d="M 176.617188 261.683594 L 135.5 240.988281 L 94.382812 261.683594 C 90.277344 264.550781 92.304688 271 97.3125 271 L 173.6875 271 C 178.695312 271 180.722656 264.550781 176.617188 261.683594 Z M 176.617188 261.683594 "/>
<path style=" stroke:none;fill-rule:nonzero;fill:rgb(62.745098%,81.176471%,94.509804%);fill-opacity:1;" d="M 176.617188 261.683594 L 135.5 240.988281 L 135.5 271 L 173.6875 271 C 178.695312 271 180.722656 264.550781 176.617188 261.683594 Z M 176.617188 261.683594 "/>
<path style=" stroke:none;fill-rule:nonzero;fill:rgb(75.686275%,90.980392%,90.196078%);fill-opacity:1;" d="M 125.265625 124.464844 L 145.734375 124.464844 L 145.734375 248.121094 L 125.265625 248.121094 Z M 125.265625 124.464844 "/>
<path style=" stroke:none;fill-rule:nonzero;fill:rgb(62.745098%,81.176471%,94.509804%);fill-opacity:1;" d="M 135.5 124.464844 L 145.734375 124.464844 L 145.734375 248.121094 L 135.5 248.121094 Z M 135.5 124.464844 "/>
<path style=" stroke:none;fill-rule:nonzero;fill:rgb(97.647059%,92.54902%,39.215686%);fill-opacity:1;" d="M 68.59375 93.394531 L 135.5 160.300781 L 202.40625 93.394531 Z M 68.59375 93.394531 "/>
<path style=" stroke:none;fill-rule:nonzero;fill:rgb(98.039216%,88.235294%,43.137255%);fill-opacity:1;" d="M 135.5 93.394531 L 135.5 160.300781 L 202.40625 93.394531 Z M 135.5 93.394531 "/>
</g>
</svg>
