<?xml version="1.0" encoding="iso-8859-1"?>
<!-- Generator: Adobe Illustrator 19.0.0, SVG Export Plug-In . SVG Version: 6.00 Build 0)  -->
<svg version="1.1" id="Layer_1" xmlns="http://www.w3.org/2000/svg" xmlns:xlink="http://www.w3.org/1999/xlink" x="0px" y="0px"
	 viewBox="0 0 361.397 361.397" style="enable-background:new 0 0 361.397 361.397;" xml:space="preserve">
<g id="XMLID_1103_">
	<g id="XMLID_1106_">
		<g id="XMLID_1105_">

				<rect id="XMLID_61_" x="208.47" y="1.246" transform="matrix(-0.9766 -0.2151 0.2151 -0.9766 423.2374 171.8619)" style="fill:#2CB79A;" width="25" height="123.313"/>
		</g>
	</g>
	<g id="XMLID_1107_">
		<polygon id="XMLID_57_" style="fill:#1DD2A5;" points="147.076,126.508 167.05,118.521 125.316,14.16 58.011,15.042
			58.292,36.552 110.827,35.863 		"/>
	</g>
	<g id="XMLID_1108_">
		<g id="XMLID_1109_">
			<path id="XMLID_1112_" style="fill:#C1E8E6;" d="M41.521,96.412L180.698,235.59L319.876,96.412
				c5.088-5.088,1.484-13.787-5.711-13.787H47.231C40.037,82.625,36.433,91.324,41.521,96.412z"/>
			<path id="XMLID_1115_" style="fill:#A0CFF1;" d="M314.165,82.625H180.698v152.964L319.876,96.412
				C324.963,91.324,321.36,82.625,314.165,82.625z"/>
		</g>
		<g id="XMLID_1116_">
			<path id="XMLID_46_" style="fill:#C1E8E6;" d="M235.531,348.972l-54.832-27.599l-54.832,27.599
				c-5.477,3.823-2.772,12.425,3.907,12.425h101.851C238.303,361.397,241.008,352.795,235.531,348.972z"/>
			<path id="XMLID_1120_" style="fill:#A0CFF1;" d="M235.531,348.972l-54.832-27.599v40.024h50.925
				C238.303,361.397,241.008,352.795,235.531,348.972z"/>
		</g>
		<g id="XMLID_1121_">
			<rect id="XMLID_39_" x="167.05" y="165.981" style="fill:#C1E8E6;" width="27.297" height="164.905"/>
			<rect id="XMLID_1125_" x="180.698" y="165.981" style="fill:#A0CFF1;" width="13.649" height="164.905"/>
		</g>
	</g>
	<g id="XMLID_1126_">
		<polygon id="XMLID_1127_" style="fill:#F9EC64;" points="91.475,124.549 180.698,213.772 269.921,124.549 		"/>
		<polygon id="XMLID_1128_" style="fill:#FAE16E;" points="180.698,124.549 180.698,213.772 269.921,124.549 		"/>
	</g>
</g>
<g>
</g>
<g>
</g>
<g>
</g>
<g>
</g>
<g>
</g>
<g>
</g>
<g>
</g>
<g>
</g>
<g>
</g>
<g>
</g>
<g>
</g>
<g>
</g>
<g>
</g>
<g>
</g>
<g>
</g>
</svg>
